<svg version="1.0" xmlns="http://www.w3.org/2000/svg" width="1365.333" height="1365.333" viewBox="0 0 1024 1024"><g fill="currentColor"><path d="M386.3 17.6c-2.6.6-8.5 5.9-10.2 9.2-.7 1.3-1.2 4.9-1.2 8 0 5.2 1 7.6 12.1 29.7 6.6 13.2 11.8 24.5 11.6 25.2-.3.7-2.6 2.2-5.1 3.3-10.2 4.6-18.9 17.6-18.8 27.9.1 5.5 1.2 8.4 6 15.7 1.9 2.9 15.5 12.4 17.7 12.4.8 0 1.7.4 2 .9.6.9 1 1 12.1 3.5 8.1 1.8 20 2.1 25.9.5 2.2-.6 5.9-1.5 8.1-2.1 17-4.7 31.5-18.8 31.5-30.7 0-10.6-9.3-23.7-20.5-29-2.5-1.2-4.5-2.3-4.5-2.5 0-.2 5.6-11.6 12.5-25.2C476.1 43.3 478 38.8 478 34.9c0-15.3-18.8-23.6-29.7-12.9-1.7 1.7-7.2 11.3-12.5 22l-9.6 19-9.8-19.6c-11.5-22.8-13.6-25.3-22.5-25.9-3-.2-6.4-.1-7.6.1zM231.4 103.5c-1.8.8-4.8 3.3-6.9 5.7-3.6 4.2-3.6 4.4-3.2 11.3.2 3.8 1 8.8 1.6 11 .7 2.2 1.6 5.6 2.1 7.5.8 3.3 1.3 4.9 4.1 14.7.6 2.1 1.3 4.9 1.5 6.3.3 1.4.9 3.4 1.4 4.5.5 1.1 1.1 3.1 1.4 4.5.2 1.4 1 4.3 1.6 6.5.6 2.2 1.4 5.1 1.6 6.5.3 1.4.9 3.4 1.4 4.5.5 1.1 1.1 3.1 1.4 4.5.2 1.4.9 4.1 1.5 6 1.9 6.6 3.2 11.5 4.1 15 .9 3.5 2.2 8.4 4.1 15 .6 1.9 1.3 4.6 1.5 6 .3 1.4.9 3.4 1.4 4.5.5 1.1 1.1 3.1 1.4 4.5.2 1.4.9 4.2 1.5 6.2 2.8 9.9 3.3 11.5 4.1 14.8.5 1.9 1.3 5.1 1.9 7 1.9 6.6 3 10.5 5.1 18.5 1.2 4.4 2.6 9.5 3.1 11.2.5 1.8 1.3 4.8 1.8 6.5.5 1.8 1.3 4.4 1.7 5.8 1 3.6 5.2 8.9 8.8 11.1 4.2 2.6 12.1 2.5 16.4-.1 10.5-6.4 11.2-12.7 4.3-37-.5-1.9-1.9-7.1-3.1-11.5-1.2-4.4-2.6-9.6-3.1-11.5-.6-1.9-1.4-5.1-1.9-7-.5-1.9-1.3-5.2-1.9-7.3-.6-2-1.6-5.4-2.2-7.5-.6-2-1.4-5.3-1.9-7.2-.5-1.9-1.3-5.2-1.9-7.3-.6-2-1.6-5.4-2.2-7.5-.6-2-1.4-5.3-1.9-7.2-.5-1.9-1.4-5.3-2-7.5-.6-2.2-1.5-5.6-2-7.5-.5-1.9-1.3-5.2-1.9-7.3-.6-2-1.6-5.4-2.2-7.5-.6-2-1.4-5.3-1.9-7.2-.5-1.9-1.3-5.2-1.9-7.3-.6-2-1.6-5.4-2.2-7.5-.6-2-1.4-5.3-1.9-7.2-.5-1.9-1.4-5.3-2-7.5-.7-2.2-1.4-5.5-1.7-7.3-.3-1.8-.9-3.5-1.4-3.8-.5-.3-.9-1.6-.9-2.9 0-1.3-.4-3.4-.9-4.7-.5-1.3-1.4-4.3-2.1-6.8-2-7-3.7-10.4-6.7-13-5.7-5.1-12.5-6.3-18.9-3.5zM519.4 105.2c-2.6 1.8-5.6 4.6-6.5 6.3-2.2 3.8-2.4 12.2-.4 16.3 1.9 3.8 6.7 7.9 10.3 9 1.5.4 12.4.7 24.3.7h21.6l3.7-2.9c5.7-4.3 7.6-8.1 7.6-15.2 0-5.5-.3-6.4-3.6-10.2-5.7-6.8-7.7-7.2-31.4-7.2h-20.8l-4.8 3.2zM776.8 103.6c-3.6 2-8.7 7.9-9.4 11.2-.3 1.5-.9 3.6-1.4 4.7-.5 1.1-1.1 3.1-1.4 4.5-.2 1.4-1 4.3-1.6 6.5-.6 2.2-1.5 5.6-2 7.5-.5 1.9-1.4 5.3-2 7.5-.6 2.2-1.4 5.1-1.6 6.5-.3 1.4-.9 3.4-1.4 4.5-.5 1.1-1.1 3.1-1.4 4.5-.2 1.4-1 4.3-1.6 6.5-.6 2.2-1.4 5.1-1.6 6.5-.3 1.4-.9 3.4-1.4 4.5-.5 1.1-1.1 3.1-1.4 4.5-.2 1.4-1 4.3-1.6 6.5-.6 2.2-1.5 5.6-2 7.5-.5 1.9-1.3 5.1-1.9 7-1.9 6.8-3.2 11.5-4.1 15-.5 1.9-1.4 5.3-2 7.5-.6 2.2-1.5 5.6-2 7.5-.5 1.9-1.3 5.2-1.9 7.2-.6 2.1-1.6 5.5-2.2 7.5-.6 2.1-1.4 5.4-1.9 7.3-.5 1.9-1.3 5.1-1.9 7-.5 1.9-1.9 7.1-3.1 11.5-1.2 4.4-2.5 9.3-3 11-4.2 14.4-5.6 22.2-4.7 26.2 1.8 7.8 8.9 13.3 17.2 13.3 8.8 0 15.1-5.8 18-16.5.9-3.3 2.1-7.4 2.5-9 .5-1.7 1.8-6.6 3-11 2.1-8 3.2-11.9 5.1-18.5.6-1.9 1.4-5.1 1.9-7 .9-3.5 2.3-8.6 4.1-14.8 2-7.1 3.1-10.9 3.9-14.2.5-1.9 1.3-5.1 1.9-7 2.3-8.1 3.3-11.6 3.7-14 .3-1.4.9-3.4 1.4-4.5.5-1.1 1.1-3.1 1.4-4.5.2-1.4 1-4.3 1.6-6.5.6-2.2 1.4-5.1 1.6-6.5.3-1.4.9-3.4 1.4-4.5.5-1.1 1.1-3.1 1.4-4.5.4-2.4 1.4-6.1 3.7-14 .6-1.9 1.3-4.6 1.5-6 .3-1.4.9-3.4 1.4-4.5.5-1.1 1.1-3.1 1.4-4.5.2-1.4 1-4.3 1.6-6.5.6-2.2 1.4-5.1 1.6-6.5.3-1.4.9-3.4 1.4-4.5 1.5-3.4 2.2-7.7 2.7-15 .4-6.9.4-7.1-3.2-11.2-1.9-2.3-5-4.9-6.7-5.7-3.8-1.9-11.3-1.9-15 0zM624.9 111.6c-2.9.6-6.6 3.6-9.7 8.1-2.7 3.8-3 12.4-.6 17.3.9 1.8 3.7 4.6 6.3 6.4 5.8 3.9 15.6 13.6 20.1 20 3.7 5.3 10.5 9.5 15.1 9.6 9.1.1 17.9-8.9 17.9-18.2 0-5.2-1.8-9-8.9-18.8-5.8-7.9-18.9-19.9-21.8-20-.7 0-1.3-.3-1.3-.8 0-2.3-11.1-4.6-17.1-3.6zM41 190.6c-7.6 5.4-10.3 15.4-6 22.9 1.1 1.9 3 5.2 4.1 7.2 1.2 2.1 3 5 4 6.5 1.1 1.4 1.9 2.9 1.9 3.3 0 .3 1.4 2.6 3 5 1.7 2.4 3 4.6 3 5 0 .4 1.4 2.6 3 5s3 4.6 3 5c0 .4 1.4 2.6 3 5s3 4.7 3 5c0 .4.8 1.9 1.9 3.3 1 1.5 2.8 4.3 3.9 6.2 1.1 1.9 5.7 9.6 10.2 17 4.5 7.4 9 14.8 10 16.5 1 1.6 6.8 11.3 13 21.5s12.1 20.1 13.2 22c1.1 1.9 2.9 4.7 3.9 6.2 1.1 1.4 1.9 2.9 1.9 3.3 0 .3 1.3 2.6 3 5 1.6 2.4 3 4.6 3 5 0 .4 1.4 2.6 3 5 1.7 2.4 3 4.6 3 4.9 0 2.3 8.1 12.1 11.5 14.2 11.3 6.6 25.5-1.7 25.5-15 0-5.4-.9-7.2-11.9-25.5-4.5-7.3-8.1-13.5-8.1-13.8 0-.2-1.3-2.4-3-4.8-1.6-2.4-3-4.6-3-5 0-.4-1.3-2.6-3-5-1.6-2.4-3-4.6-3-5 0-.4-1.3-2.6-3-5-1.6-2.4-3-4.6-3-5 0-.4-1.3-2.6-3-5s-3-4.6-3-5c0-.4-1.3-2.6-3-5-1.6-2.4-3-4.6-3-5 0-.4-1.4-2.6-3-5-1.7-2.4-3-4.6-3-4.9 0-.2-2.3-4.1-5-8.6s-5-8.4-5-8.6c0-.3-1.3-2.5-3-4.9-1.6-2.4-3-4.6-3-5 0-.4-1.4-2.6-3-5s-3-4.6-3-5c0-.4-1.3-2.6-3-5-1.6-2.4-3-4.6-3-5 0-.4-1.3-2.6-3-5-1.6-2.4-3-4.6-3-4.8 0-1-14.4-24.4-16.4-26.5-3.4-3.8-7.1-5.2-13.3-5.2-4.5.1-6.6.7-9.3 2.6zM963.8 189.6c-2.9 1.6-7.7 7-9.9 11.2-.8 1.5-4.9 8.5-9.1 15.5-4.3 7.1-7.8 13.1-7.8 13.4 0 .2-1.3 2.4-3 4.8-1.6 2.4-3 4.6-3 5 0 .4-1.3 2.6-3 5-1.6 2.4-3 4.6-3 4.9 0 .2-2.2 4.1-5 8.6-2.7 4.5-5 8.4-5 8.6 0 .3-1.3 2.5-3 4.9-1.6 2.4-3 4.6-3 5 0 .4-1.3 2.6-3 5-1.6 2.4-3 4.6-3 5 0 .4-1.3 2.6-3 5-1.6 2.4-3 4.6-3 5 0 .4-1.3 2.6-3 5-1.6 2.4-3 4.6-3 5 0 .4-1.3 2.6-3 5-1.6 2.4-3 4.6-3 5 0 .4-1.3 2.6-3 5-1.6 2.4-3 4.6-3 5 0 .4-1.3 2.6-3 5-1.6 2.4-3 4.6-3 5 0 .4-1.3 2.6-3 5-1.6 2.4-3 4.6-3 4.8 0 .2-3.1 5.7-7 12.1-6.5 10.8-7 12-7 17.4 0 6.8 2.3 11.2 7.9 14.9 4.1 2.8 12.2 3.1 17 .7 3.1-1.5 8.6-8.1 11.3-13.4.7-1.4 2-3.6 2.9-5 .9-1.4 2.6-4.1 3.7-6 1.1-1.9 7-11.8 13.2-22 6.2-10.2 12.1-20.1 13.2-22 1.1-1.9 2.9-4.7 3.9-6.2 1.1-1.4 1.9-2.9 1.9-3.3 0-.4.8-1.9 1.9-3.3 1-1.5 2.8-4.3 3.9-6.2 1.1-1.9 7-11.8 13.2-22 6.2-10.2 12.1-20.1 13.2-22 1.1-1.9 2.9-4.7 3.9-6.2 1.1-1.4 1.9-2.9 1.9-3.3 0-.3 1.4-2.6 3-5 1.7-2.4 3-4.6 3-5 0-.4 1.4-2.6 3-5 1.7-2.4 3-4.7 3-5 0-.4.8-1.9 1.9-3.3 1-1.5 2.8-4.4 4-6.5 1.1-2 3-5.3 4.1-7.2 4.6-8.2.8-19.4-8.2-24.1-3.4-1.8-12.4-1.6-16 .2zM649 206.3c-2.7 1.4-5.9 4.2-8 7.2-4.7 6.5-12.4 14.2-18.5 18.5-6.9 4.9-9.5 9.1-9.5 15.5 0 10.7 6.8 17.5 17.4 17.5 4.5 0 6.6-.7 11.4-3.5 11-6.4 26.4-23.3 31-33.8 1.5-3.4 1.6-9.3.2-10.2-.5-.3-1-1.4-1-2.5 0-3.7-11-11-16.4-11-1.1 0-4.1 1.1-6.6 2.3zM524.1 239.5c-8 2.5-13.2 9.4-13 17.4.1 5.5 2.1 9.4 7.3 13.5l3.8 3.1 20.1.3c23.3.4 27.3 0 30.8-3.1 5.1-4.5 6.9-8.2 6.9-14.2 0-8.8-5.3-15.3-14.2-17.3-7-1.7-36.1-1.4-41.7.3zM462.3 274.1c-9.8 4.8-19.3 28.3-19.3 47.9 0 5.9.5 8.3 2.1 11 3.2 5.2 6.8 7.9 11.6 8.6 6.3.9 10.5-.2 15-4 4.4-3.8 6-7.9 6.6-17.1.5-5.9 2-10.9 7.2-23.4 2.5-5.8 2.6-6.8 1.5-10.5-1.7-5.9-5.6-10.5-10.7-12.7-5.6-2.4-8.7-2.3-14 .2zM451.2 378.2c-1.8 1.1-4.4 4-5.8 6.3-2.5 4.4-2.5 4.4-2.2 26.3.3 21.4.4 21.9 2.8 25.5 8.4 12.3 27 9.2 31-5.1.5-2 1-11.9 1-22 0-14.2-.3-19.1-1.5-22-1.9-4.3-5-7.9-8.7-9.8-4-2.1-12.6-1.6-16.6.8zM45.5 479.1c-3.8 1.2-6.8 3.7-9.4 8-2.1 3.4-2.1 3.8-2.1 118.3 0 109 .1 114.8 1.8 114.1 4.9-2.1 19.4-2.4 139.8-3.1 131.8-.7 137-.6 146.9 2.8 16.3 5.6 28.8 18.6 34.4 35.9.6 1.9 1.1 9.4 1.1 16.6 0 14.3 1.4 20.9 5.2 25 5.2 5.6-2.4 5.3 148.3 5.3 151.8 0 143.1.3 148.6-5.7 3.7-3.9 4.9-10.2 4.9-24.9 0-13.5.6-16.3 5.2-26 3.7-7.8 9.7-14.6 16.7-19.3 9.2-6 13.3-7.5 24.7-9.1 12.9-1.8 271.8-.1 275.2 1.8l2.2 1.3V605.5c0-96.7-.2-115-1.4-117.3-2-3.8-6.5-7.7-10.5-9.1-4.3-1.4-926.9-1.4-931.6 0zm419.6 34c4.5 1.4 10.2 7.1 11.8 11.8.7 2.1 1.1 10.9 1.1 22.3 0 20.1-.7 23.7-5.2 28.6-7.8 8.2-22 6.4-27.6-3.6-2.1-3.8-2.2-5.1-2.2-25.1 0-18.8.2-21.6 1.9-24.9 2.4-4.7 5-7 9.8-8.8 4.7-1.6 5.7-1.7 10.4-.3zm1 102.3c4.5 1.9 7.2 4.4 9.8 8.9 2 3.5 2.1 5.2 2.1 25v21.3l-2.9 4.6c-3.7 5.8-8.5 8.2-15.8 8.1-4.2-.1-6.2-.8-8.9-2.8-7.2-5.5-7.4-6.4-7.4-31.1 0-26.8.5-28.3 10.6-33.4 4.7-2.3 8-2.5 12.5-.6z"/><path d="M45.5 752.7c-3.7 1-7.3 4.3-9.4 8.6-2.1 4.3-2.1 5-2.1 101.8 0 106.8-.2 102.2 6 112 3.6 5.6 11.5 11.3 18.5 13.4 4.4 1.3 56.7 1.5 453 1.5 484 0 452.4.3 461-5 4.3-2.7 10.9-9.9 12.8-14.1 3.6-7.8 3.7-10.4 3.7-108.4l-.1-97-2.3-4.5c-1.3-2.6-3.7-5.3-5.7-6.5-3.4-2-4.9-2-137-2H710.3l-3.6 2.8c-5.7 4.3-6.7 7.9-6.7 23.5 0 20.9-3.6 30.8-15.5 42.8-6.8 6.8-14.1 11.3-23.6 14.3-2.6.8-43.6 1.1-149.4 1.1-144.4 0-148.7-.1-154.7-3.1-1-.5-2.3-.9-2.8-.9-2.2 0-12.8-8-17.7-13.3-9.9-10.9-13.3-21.4-13.3-41.1 0-15.4-1-19-6.7-23.3l-3.6-2.8-132.6-.1c-72.9-.1-133.5 0-134.6.3z"/></g></svg>