<svg version="1.0" xmlns="http://www.w3.org/2000/svg" width="1365.333" height="1365.333" viewBox="0 0 1024 1024"><g fill="currentColor"><path d="M156.5 130.2c-12.9 4.3-23.1 14.7-27.4 27.8l-2.1 6.3v308.1c0 327.6-.2 312.2 4.5 330.1 8.9 34.2 35.9 66.2 69.5 82.2 13.4 6.3 22.3 9 37.5 11.3 10.7 1.5 544.4.9 552-.7 14.7-3.1 29.9-8.7 39.6-14.7 3-1.7 6.5-3.9 7.9-4.7 5.2-3 17-13.1 23.8-20.3 14.7-15.8 25.6-36.2 31.1-58.1 2.9-11.9 3.1-19.8 3.1-133.2 0-114.9 0-116-2.1-122.3-5.8-17.8-22.4-30-40.9-30-16.6 0-32.5 10.3-39.5 25.5-4.4 9.6-4.4 10.4-4.5 127.6 0 77.4-.3 112.6-1.1 115-4.4 13.9-14.9 24.4-28.8 28.8-4.9 1.6-531.9 1.5-535.8 0-14.8-6-22.2-13.4-28.2-28.2-.8-2-1.1-76.1-1.1-277.5V228.5l2.1-3.4c2.6-4.2 3.8-5.4 8-8 3.4-2.1 3.8-2.1 123.8-2.1 84.3 0 122.4-.3 127-1.1 34.5-5.9 49.1-46.4 25.8-71.6-5.7-6.2-11.1-9.7-18.7-12.2-6.3-2.1-6.7-2.1-162.9-2-154.3 0-156.7.1-162.6 2.1z"/><path d="M626.7 130.1c-12.2 4.1-20.9 11.9-26.3 23.6-3.1 6.6-3.4 8.1-3.5 16.6 0 9.8 2 17.7 6.4 24.2 1.1 1.6 17.4 18.5 36.3 37.5 33.3 33.5 34.3 34.7 35.9 40.2 1.5 5.4 1.5 6.2 0 11.5l-1.6 5.8-159.5 158.9c-87.8 87.4-161.5 161.5-164 164.8-5.7 7.3-8.3 13.3-9.4 21.1-2 13.8 2.3 26.1 12.4 36.3 10.2 10.1 22.5 14.4 36.1 12.5 7.8-1.1 12.3-3.1 19.9-8.5 3.5-2.5 75.7-74.2 165.7-164.4 152.6-153.1 159.6-160 164.8-161.7 4.7-1.5 6-1.6 11-.5 5.6 1.3 5.9 1.6 40.6 36 19.3 19.1 36.4 35.6 38 36.7 1.7 1.1 5.8 3 9.1 4.3 5.2 1.8 7.8 2.1 16 1.8 8.6-.3 10.7-.7 16.4-3.4 11.2-5.4 19-14.3 22.9-26.4 2.1-6.2 2.1-7.9 2.1-119.5 0-78.1-.3-114.3-1.1-116.6-5-16-15.7-26.9-30.8-31.5-3.8-1.1-23.5-1.4-118.1-1.3-110.3 0-113.7.1-119.3 2z"/></g></svg>