<svg width="64" height="66" viewBox="0 0 64 66" fill="none" xmlns="http://www.w3.org/2000/svg">
<circle cx="32" cy="33.92" r="32" fill="#3870FF"/>
<circle cx="32" cy="33.92" r="29.44" stroke="black" stroke-opacity="0.16" stroke-width="5.12"/>
<path d="M34.3758 49.8716C33.2379 49.8716 31.9687 49.6819 30.5682 49.3026C29.1677 48.9525 27.7526 48.3835 26.323 47.5957C24.9225 46.808 23.6241 45.7868 22.4278 44.5322C21.2607 43.2776 20.3125 41.7749 19.5831 40.0243C18.8828 38.2737 18.5327 36.2459 18.5327 33.9409C18.5327 31.7235 18.8828 29.7686 19.5831 28.0763C20.3125 26.3841 21.2607 24.9252 22.4278 23.6998C23.5949 22.4744 24.8787 21.4823 26.2792 20.7237C27.7089 19.9651 29.1385 19.4108 30.5682 19.0606C31.9979 18.6813 33.3108 18.4917 34.5071 18.4917C35.9951 18.4917 37.3081 18.6813 38.446 19.0606C39.5839 19.4108 40.503 19.7901 41.2032 20.1985C41.9327 20.5778 42.3849 20.8259 42.56 20.9426C43.1435 21.3219 43.6833 21.7449 44.1793 22.2118C44.7045 22.6494 44.9671 23.2475 44.9671 24.0061C44.9671 24.3854 44.8795 24.7793 44.7045 25.1878C44.5586 25.5963 44.3252 26.0194 44.0042 26.457C43.4207 27.274 42.8663 27.8721 42.3411 28.2514C41.8451 28.6307 41.3491 28.8204 40.8531 28.8204C40.4738 28.8204 40.1091 28.7328 39.759 28.5578C39.4088 28.3827 38.9858 28.1347 38.4898 27.8137C38.2855 27.6679 38.0229 27.5074 37.702 27.3323C37.381 27.1281 36.9434 26.953 36.389 26.8071C35.8347 26.6321 35.1052 26.5445 34.2007 26.5445C33.4421 26.5445 32.6106 26.6904 31.7061 26.9822C30.8308 27.2448 29.9993 27.6824 29.2115 28.2952C28.4237 28.8787 27.7818 29.6665 27.2858 30.6585C26.7898 31.6213 26.5418 32.7884 26.5418 34.1597C26.5418 35.5602 26.7898 36.7419 27.2858 37.7047C27.811 38.6676 28.4675 39.4554 29.2552 40.0681C30.043 40.6516 30.8746 41.0893 31.7499 41.381C32.6544 41.6436 33.4713 41.7749 34.2007 41.7749C34.9593 41.7749 35.6012 41.7166 36.1264 41.5999C36.6516 41.454 37.1184 41.2643 37.5269 41.0309C37.9646 40.7975 38.3585 40.5641 38.7086 40.3307C39.0295 40.0973 39.3797 39.893 39.759 39.718C40.1383 39.5429 40.5176 39.4554 40.8969 39.4554C41.3929 39.4554 41.8889 39.6596 42.3849 40.0681C42.8809 40.4766 43.4061 41.1039 43.9605 41.95C44.2814 42.446 44.5148 42.9128 44.6607 43.3505C44.8358 43.759 44.9233 44.1383 44.9233 44.4884C44.9233 45.2178 44.6607 45.8014 44.1355 46.239C43.6395 46.6767 43.0997 47.0706 42.5162 47.4207C42.312 47.5374 41.8743 47.8 41.2032 48.2085C40.5322 48.6169 39.6277 48.9962 38.4898 49.3464C37.3519 49.6965 35.9805 49.8716 34.3758 49.8716Z" fill="#FFFDFB"/>
</svg>
