<svg version="1.0" xmlns="http://www.w3.org/2000/svg" width="1365.333" height="1365.333" viewBox="0 0 1024 1024"><g fill="currentColor"><path d="M152.5 1c-.3.5-2.2 1-4.2 1s-7.8 1.4-13 3c-23.8 7.6-43 23.5-54.6 45-5.9 11-9.4 22.8-10.7 36.5-.8 7.7-1 107.4-.8 335l.3 324 44.5.3c24.5.1 45.6 0 46.9-.3l2.4-.6-.6-324.9c-.5-257.4-.4-325.1.6-325.7.6-.4 126.4-.7 279.4-.5l278.3.3V0H437.1C248.8 0 152.9.3 152.5 1z"/><path d="m440.5 187-108 .5-9.7 3.2c-29.9 9.6-52.4 31.2-62.2 59.9-5.8 16.8-5.5 2.4-5.5 357.4 0 354.7-.3 336.2 5.4 353.5 1.5 4.4 3 8.4 3.5 9 .4.5 2.1 3.6 3.8 6.8 10.6 19.5 31.5 36.1 54.7 43.4l9 2.8h546l9.8-3.2c29.3-9.6 51.4-30.9 61.3-59.4 5.6-15.9 5.3-1.2 5.4-357.1 0-229.7-.3-331-1.1-336.5-4.8-35-29.3-64.6-62.7-75.9-16.3-5.5-14.3-5.4-184.7-5.2-86.3.2-205.6.5-265 .8zm419.3 418.8L860 931l-255.2-.2-255.3-.3-.3-325.3L349 280l255.2.2 255.3.3.3 325.3z"/></g></svg>