<svg version="1.0" xmlns="http://www.w3.org/2000/svg" width="1365.333" height="1365.333" viewBox="0 0 1024 1024"><path d="M507 .9c0 .5-1.2 1.2-2.7 1.6-5.9 1.3-12.2 7.5-26 25.7-67.6 88.9-280.5 373.1-289.5 386.3-34.4 50.7-55.7 107.7-64 171.5-1.8 14-2.2 21.5-2.2 50 0 32.9.1 33.9 3.2 54 14.5 91.7 56.3 170.4 122.9 231.5 25.7 23.6 60.2 47.2 89.3 61.2 22.7 10.9 21.8 10.5 40.5 17.3 3 1.1 7.9 2.9 10.7 4 4.6 1.7 15.9 4.9 28.8 8 1.9.5 5.5 1.4 8 2 5 1.2 12.2 2.6 22 4.1 3.6.5 9.2 1.4 12.5 1.9 11.9 2 34.3 3.5 51 3.5 23.4 0 35.1-.9 57.5-4.5 3-.5 8.9-1.4 13-2 4.1-.6 9.2-1.6 11.3-2.1 2-.5 5.5-1.4 7.7-1.9 2.2-.6 5.8-1.5 8-2 9.3-2.3 11.8-3 18.5-5 3.9-1.1 7.9-2.5 9-2.9 1.1-.5 4.6-1.8 7.8-3 14-5.1 17.4-6.4 20.7-7.9 64-28.2 117.2-70.1 158.1-124.3 38.9-51.7 63.8-111.4 74-177.9 3.3-21 3.4-22.2 3.4-54 0-36.5-1.2-49.9-7-79-10.3-51.1-29.6-98.1-57.8-140.5-7.8-11.6-21.3-30.1-125.3-171.5C543.7 18.5 531.8 3 524.8 3c-.9 0-2.3-.7-3.2-1.5C520-.2 507-.7 507 .9z" fill="currentColor"/></svg>