<svg version="1.0" xmlns="http://www.w3.org/2000/svg" width="1365.333" height="1365.333" viewBox="0 0 1024 1024"><g fill="currentColor"><path d="M239 1c-.8.4-8 1.5-15.9 2.5-59.3 6.8-114.3 35.9-149.6 79-28.5 34.8-45.5 74.2-52.1 121-2.3 16.5-2.3 48.7.1 65.5 8.4 60.5 37.6 114.1 81.5 150 22.5 18.3 43.7 29.8 74.5 40.5 7 2.5 26.7 7.2 35 8.4 4.4.7 10.9 1.7 14.5 2.4 3.9.6 17.8 1.1 34.5 1.1 31.1-.1 44.8-1.5 68-7.3 87.4-21.9 148.6-83.8 169.5-171.6 8.2-34.2 8.4-76 .5-110.5-2-8.5-9.4-33-10.5-34.5-.4-.6-1.7-3.7-3-7-10.2-26-32.3-57.8-53.6-77-30.7-27.7-62.3-44.7-101.1-54.4-13-3.3-36.6-7.1-43.8-7.1-2.4 0-4.7-.5-5-1-.8-1.2-41.3-1.3-43.5 0zm37.5 110c45 4.3 79.1 26.6 98 64 8.2 16.4 11.7 28.7 13.6 47.7 5.9 60.2-24.7 111.9-77.1 130.4-27.5 9.8-67.6 9.8-96 .2-36.2-12.3-63.8-40-75.6-76-3.6-11.3-4.4-15.3-5.8-29.8-3.5-36.2 6.1-69.3 27.6-95.4 24.7-30 68.1-45.5 115.3-41.1zM874.5 90.1c-32.1.7-41.9 1.4-44 2.8-.5.4-3 1.4-5.5 2.1-2.5.8-6.1 2.3-8 3.4-1.9 1-4.8 2.6-6.4 3.4-3 1.6-17.1 15.1-24.1 23.2-2.1 2.5-5.9 6.8-8.4 9.5-2.5 2.8-8 8.9-12.2 13.5-4.1 4.7-12.2 13.7-17.9 20-5.6 6.3-11.9 13.3-13.8 15.5-2 2.2-5.8 6.5-8.6 9.5-2.8 3.1-8.3 9.1-12.2 13.5-5.9 6.7-42.5 47.5-69.9 78-3.9 4.4-17.5 19.5-30.1 33.6-55.5 61.9-87.7 97.6-159.4 177.4-42.1 46.7-97 107.7-122 135.5-25 27.8-47.5 52.7-50.1 55.5-2.5 2.7-6.6 7.2-9 10-2.4 2.7-6.7 7.5-9.5 10.5s-6.9 7.5-9 10c-2.1 2.5-6.2 7-9 10s-6.9 7.5-9 10c-2.1 2.5-6.2 7-9 10s-6.9 7.5-9 10c-2.1 2.5-6.2 7-9 10s-15.4 17-28 31-23.1 25.7-23.4 26c-.3.3-4.3 4.8-9 10s-10.8 12-13.6 15c-2.8 3-6.9 7.5-9 10-2.1 2.5-6.2 7-9 10s-6.9 7.5-9 10c-2.1 2.5-4.1 4.7-4.4 5-1.7 1.7-12.5 13.6-18 19.9-9.8 11.1-11 13.2-11 19 0 4.6.4 5.5 4.2 9.5 3.4 3.5 5.2 4.6 8.8 5.1 2.5.3 27.9.5 56.5.3l52-.4 6.6-2.6c7.5-2.9 14.9-6.8 19.5-10.3 3.4-2.6 15.9-15.3 22-22.5 2.1-2.5 6.1-7 8.9-10 2.7-3.1 6.6-7.3 8.5-9.5 6.5-7.4 18.5-20.9 19.5-22.1.6-.6 8-8.9 16.5-18.4 8.5-9.6 18-20.1 21-23.5 3-3.4 7.1-7.9 9-10.1 2-2.1 12.8-14.2 24-26.8 11.3-12.6 22.8-25.5 25.5-28.7 2.8-3.1 15.8-17.8 29-32.6 13.2-14.7 42.9-47.9 66-73.8 23-25.8 70.3-78.7 105-117.4 34.6-38.8 69.1-77.3 76.5-85.5 7.4-8.3 23.5-26.4 35.9-40.1 12.3-13.8 25.6-28.6 29.6-33 3.9-4.4 11.6-13 17.1-19.1 5.4-6.1 13.3-14.8 17.4-19.5 4.1-4.6 11.9-13.3 17.4-19.4 5.4-6 11.5-12.8 13.4-15 2-2.2 5.8-6.5 8.6-9.5 2.8-3.1 8.5-9.4 12.6-14 4.1-4.7 11.9-13.4 17.4-19.5 5.4-6 11.5-12.8 13.4-15 2-2.2 5.6-6.3 8.1-9 6.3-7 19-21.1 23.7-26.5 2.1-2.5 6.2-7 9-10s6.9-7.5 9-10c2.1-2.5 4.1-4.7 4.4-5 .3-.3 3.9-4.3 8-9s8.2-9.2 9-10c.9-.8 4.9-5.3 9-10s7.7-8.7 8-9c.3-.3 3.9-4.3 8-8.9 4.1-4.7 9.2-10.3 11.3-12.5 2-2.3 4.6-6.5 5.8-9.5 1.7-4.5 1.8-5.9.8-9-1.4-4.3-4.2-7.5-8.3-9.8-3.9-2-21.1-2.3-68.1-1.2zM742 562.7c-61.3 6.1-108.3 26.2-145.3 62.2-39 38-61.1 83.3-68.2 139.9-1.9 15-1.7 47.5.4 61.7 5.3 36.2 17.7 68.8 37.4 98.5 8.9 13.3 12.7 18 25.2 30.9 34.7 35.8 79.2 57.7 133.5 65.8 17.8 2.6 61 2.6 79.5-.1 61.2-8.7 110.4-35.1 147.2-79.1 21.4-25.7 38.1-60.3 46.2-96 7.4-32.8 7.4-72.2 0-105.5-7.6-34.6-24.7-70.8-44.8-95-7.2-8.8-24-25.7-31.6-32-14.7-12.1-45.6-30.4-57.1-33.9-1.6-.5-6.6-2.3-11.1-4-15.6-5.7-39.8-10.9-61.3-13.1-8.8-.9-42-1.1-50-.3zm44.1 105.8c51.8 7.2 88.7 40.4 101.3 91.1 15 60-9.9 120.5-59.7 145.1-17.1 8.5-33 12.2-55.5 13-40.8 1.5-71.9-9.5-96.7-34.1-20.5-20.3-32.7-48.1-35.5-81-4.5-52.7 20.1-100.3 63-122.1 22.6-11.4 54.4-16.1 83.1-12z"/></g></svg>