<svg version="1.0" xmlns="http://www.w3.org/2000/svg" width="1365.333" height="1365.333" viewBox="0 0 1024 1024"><g fill="currentColor"><path d="M498 1c-.8.4-4 1.3-7 2-25.3 5.7-48.4 23.9-60.2 47.5-7.1 14.2-9.8 28.4-9.8 52.7V120h-79c-76.6 0-82.6.2-93.5 3.1-10 2.8-22.3 8.5-29.5 13.7-5.5 4.1-15.6 14-19.9 19.6-17.4 22.8-22.7 55.1-13.6 82 .9 2.6 1.5 4.9 1.3 5-.2.1-2.1.8-4.3 1.5-6.7 2.2-19.7 9-25.1 13.2-5.5 4.3-15.5 14.4-19.6 19.9-4.1 5.6-10.2 17.9-12.5 25.5-4.2 13.5-4.4 17-4.1 68l.3 49 31.2.3 31.2.2.5 5.3c.6 6.1 2.2 21.7 3.7 36.7.5 5.8 1.4 14.5 1.9 19.5.9 8.5 1.5 14.9 4 40.5s3.1 32 4 40.5c.5 4.9 1.4 13.9 2 20l2 20c.5 4.9 1.4 13.9 2 20l2 20c.9 9.2 2.3 23 4.1 41.5.5 5.8 1.4 14.5 1.9 19.5 1.2 11.6 2.6 26.2 4 40l2 20c.5 4.9 1.4 13.9 2 20l2 20c.5 4.9 1.4 13.9 2 20l2 20c.5 4.9 1.4 13.5 1.9 19 .6 5.5 1.5 14.6 2.1 20.2.5 5.7 1.5 14.9 2 20.5.6 5.7 1.5 14.7 2 20 .6 5.4 1.4 14.2 2 19.5.5 5.4 1.4 14.4 2 20 2.1 21.5 3 30.1 4 40.8.6 6 1.3 12.9 1.6 15.2l.5 4.3h534.8l.5-3.3c.3-1.7 1-8.6 1.6-15.2.6-6.6 1.5-16.1 2-21 .9-8.4 1.4-13.1 4-39.5.6-5.5 1.5-14.5 2-20 .6-5.5 1.5-14.6 2-20.3.6-5.6 1.5-14.5 2-19.7 1.5-14.8 3-29.7 4-39.5l2-20c.6-6.1 1.5-15.1 2-20l2-20c.6-6.1 1.5-15.4 2-20.8.6-5.3 1.5-14.2 2-19.7.6-5.5 1.4-14.4 2-19.8.5-5.3 1.4-14.7 2-20.7.6-6.1 1.5-15.1 2-20l2-20c.6-6.1 1.5-15.1 2-20 .9-9.2 2.3-23.1 4.1-41 .5-5.5 1.4-14.3 1.9-19.5.5-5.2 1.4-14.5 2-20.5 1.1-11.4 2.4-24.6 4-40 .5-5 1.4-13.8 2-19.8.5-5.9 1.5-15.5 2-21.5.6-5.9 1.5-14.8 2-19.7l2-20c.6-6.1 1.3-13.4 1.6-16.2l.5-5.3 31.2-.2 31.2-.3.3-48.5c.2-34 0-50.6-.9-55.5-3.9-23.2-16.3-43.7-35.5-58.5-6-4.7-18.2-11.1-24.7-13.1-2.6-.7-4.7-1.6-4.7-1.9 0-.3.7-2.5 1.6-4.9 7.5-21.6 5.3-47.7-5.9-69.1-13.2-25.2-36.2-42.1-64.6-47.6-6.2-1.1-21.8-1.4-86.3-1.4H602v-16.8c0-35.9-7.4-56.7-26.9-76.3-11.6-11.6-28.5-21-42.6-23.9-3.3-.6-6.8-1.6-7.7-2.1-2.2-1.1-24.7-1.1-26.8.1zm24.3 62c7.1 2.6 14.1 9.6 16.7 16.7 1.7 4.6 2 7.8 2 22.8V120h-59v-17.5c0-20.8 1.2-25.3 8.7-32.8 8.3-8.3 20.4-10.9 31.6-6.7zM760 182.3c12.9 4.7 21 15.5 21 28.2s-8.1 23.5-21 28.2c-4.9 1.8-491.9 1.9-497.1.1-12.3-4.1-20.9-15.8-20.9-28.3 0-12.6 7.8-23.2 20.5-28.1 4.6-1.8 492.6-1.9 497.5-.1zm59.9 119.9c9.1 3.1 17.6 11.7 19.9 20.3.7 2.7 1.2 11.3 1.2 21V360H182v-17.3c0-11.4.5-18.4 1.3-20.7 3.6-10 9.4-15.8 19.2-19.6 4.5-1.7 612.4-1.9 617.4-.2zm-42.4 123c-.6 5.4-2.1 21-3.5 35.3l-2 20c-.5 4.9-1.4 13.9-2 20l-2 20c-.5 4.9-1.4 13.9-2 20l-2 20c-.5 4.9-1.4 13.7-1.9 19.5-.6 5.8-1.5 15.2-2.1 21-2.6 26.2-3.1 30.6-4 40-1.2 12.1-2.7 26.9-4.1 41-.5 5.8-1.4 14.5-1.9 19.5-.5 4.9-1.4 13.9-2 20-.6 6-1.5 15.5-2.1 21-1 10.4-2.3 23.1-3.9 40-1.9 19.4-4.4 44.7-5.6 56.2l-.5 5.3H287.1l-.5-5.2c-1.2-11.9-2.6-25.9-3.6-36.3-1-10.4-1.5-15.5-3.9-40-.6-5.5-1.5-14.5-2-20-.6-5.5-1.5-14.5-2-20-1.8-18.1-3.1-30.8-4.1-41-1.7-17.6-4.3-43.8-6-60.5-.6-5.8-1.5-14.9-2-20.3-1.3-12.4-2.7-26.9-4-40-.6-5.6-1.5-14.5-2-19.7-.5-5.2-1.4-14-1.9-19.5-.6-5.5-1.5-15-2.1-21-.6-6.1-1.5-15.1-2-20-1-9.3-2.3-22.7-4.1-40-.5-5.5-1.2-12.1-1.5-14.8l-.5-4.7H778l-.5 4.2zm-48 484.5c-.7 6.5-2.2 21.3-3.5 35.8-.6 6.6-1.3 13.4-1.6 15.1l-.4 3.1-108.9.6c-59.9.3-155.5.3-212.5 0l-103.5-.6-.6-4.1c-.2-2.3-1.4-13.5-2.5-25.1-1.1-11.6-2.2-22.9-2.5-25.3l-.5-4.2h437.1l-.6 4.7z"/><path d="M361.5 481.2c-.3.7-.4 69.2-.3 152.3l.3 151h60v-304l-29.8-.3c-23.3-.2-29.9 0-30.2 1zM481.5 481.2c-.3.7-.4 69.2-.3 152.3l.3 151h60v-304l-29.8-.3c-23.3-.2-29.9 0-30.2 1zM601.5 481.2c-.3.7-.4 69.2-.3 152.3l.3 151h60v-304l-29.8-.3c-23.3-.2-29.9 0-30.2 1z"/></g></svg>