<svg version="1.0" xmlns="http://www.w3.org/2000/svg" width="1365.333" height="1365.333" viewBox="0 0 1024 1024"><path d="M506 247.7c-1.3.3-4.2 1.8-6.5 3.3-5.9 4.2-393.7 392.7-397.2 398-3.2 4.9-8.5 15.7-10.1 20.5-3.3 10.2-3.7 12.8-3.7 25.5s1.6 24.1 3.7 26.4c.4.6.8 1.6.8 2.3 0 2.1 4.1 10.3 8.3 16.8 7.8 11.8 23.5 25.5 33.7 29.5 1.9.7 4 1.6 4.5 2 .6.3 3 1.2 5.5 1.9s5.5 1.7 6.7 2.2c3.9 1.5 22.5 2.1 29.8.9 12.1-1.9 13.5-2.2 14.1-3.1.3-.5 1.3-.9 2.2-.9 2.6 0 14.2-6.2 20.5-10.9 3.1-2.2 70-68.7 148.8-147.6C445.9 535.6 510.9 471 511.5 471c.6 0 65.8 64.8 144.9 144 108.3 108.5 145.5 145.2 150.9 148.8 7.6 5.1 15.7 9.2 18.1 9.2.8 0 1.7.4 2 .9.6.9 2 1.2 14.1 3.1 7.3 1.2 25.8.6 29.8-.9 1.2-.5 4-1.4 6.2-2 3.8-1.2 5.3-1.8 11.5-4.5 5.5-2.4 16.8-10.8 22.6-16.8 8.7-9 18.4-24.4 18.4-29.2 0-.8.4-1.7.9-2 .9-.6 1.2-2 3.1-14.1 1.2-7.4.6-26.9-.9-30.7-.5-1.3-1.5-4.3-2.2-6.8-1.5-4.9-7.5-17.1-11-22.2-3.2-4.7-391.6-393.4-396.6-396.9-4.2-2.9-11.8-4.4-17.3-3.2z" fill="currentColor"/></svg>